<svg xmlns="http://www.w3.org/2000/svg" version="1.1" width="555.7mm" height="234.7mm" viewBox = " 0 0 1969.0173670000001 831.6148569999999" >
<!-- Front--> 
<g transform="translate(22.5000185, 22.5000185) " > 
<polygon style="stroke:#0000FF; fill:none; stroke-width:0.00354331" points="10.62993, 0 27.4606525, 0 27.4606525, 10.62993 35.69884825, 10.62993 35.69884825, 18.070881 31.26971075, 18.070881 31.26971075, 26.929156 35.69884825, 26.929156 35.69884825, 35.787431 46.68310925, 35.787431 46.68310925, 26.929156 51.11224675, 26.929156 51.11224675, 18.070881 46.68310925, 18.070881 46.68310925, 10.62993 54.921305, 10.62993 54.921305, 0 76.181165, 0 76.181165, 10.62993 97.441025, 10.62993 97.441025, 0 118.700885, 0 118.700885, 10.62993 139.960745, 10.62993 139.960745, 0 161.220605, 0 161.220605, 10.62993 182.48046499999998, 10.62993 182.48046499999998, 0 203.74032499999998, 0 203.74032499999998, 10.62993 225.000185, 10.62993 225.000185, 0 246.260045, 0 246.260045, 10.62993 267.519905, 10.62993 267.519905, 0 288.779765, 0 288.779765, 10.62993 310.039625, 10.62993 310.039625, 0 331.299485, 0 331.299485, 10.62993 352.559345, 10.62993 352.559345, 0 373.819205, 0 373.819205, 10.62993 395.079065, 10.62993 395.079065, 0 416.338925, 0 416.338925, 10.62993 437.598785, 10.62993 437.598785, 0 458.858645, 0 458.858645, 10.62993 480.118505, 10.62993 480.118505, 0 501.37836500000003, 0 501.37836500000003, 10.62993 522.638225, 10.62993 522.638225, 0 543.898085, 0 543.898085, 10.62993 565.1579449999999, 10.62993 565.1579449999999, 0 586.4178049999999, 0 586.4178049999999, 10.62993 594.65600075, 10.62993 594.65600075, 18.070881 590.22686325, 18.070881 590.22686325, 26.929156 594.65600075, 26.929156 594.65600075, 35.787431 605.64026175, 35.787431 605.64026175, 26.929156 610.0693992500001, 26.929156 610.0693992500001, 18.070881 605.64026175, 18.070881 605.64026175, 10.62993 613.8784575, 10.62993 613.8784575, 0 630.7091800000001, 0 630.7091800000001, 31.0039625 641.33911, 31.0039625 641.33911, 39.95082025 628.228863, 39.95082025 628.228863, 53.06106725 641.33911, 53.06106725 641.33911, 62.007925 630.7091800000001, 62.007925 630.7091800000001, 83.267785 641.33911, 83.267785 641.33911, 92.21464275 628.228863, 92.21464275 628.228863, 105.32488975000001 641.33911, 105.32488975000001 641.33911, 114.2717475 630.7091800000001, 114.2717475 630.7091800000001, 145.27571 613.8784575, 145.27571 613.8784575, 134.64578 605.64026175, 134.64578 605.64026175, 127.204829 610.0693992500001, 127.204829 610.0693992500001, 118.346554 605.64026175, 118.346554 605.64026175, 109.488279 594.65600075, 109.488279 594.65600075, 118.346554 590.22686325, 118.346554 590.22686325, 127.204829 594.65600075, 127.204829 594.65600075, 134.64578 586.4178049999999, 134.64578 586.4178049999999, 145.27571 565.1579449999999, 145.27571 565.1579449999999, 134.64578 543.898085, 134.64578 543.898085, 145.27571 522.638225, 145.27571 522.638225, 134.64578 501.37836500000003, 134.64578 501.37836500000003, 145.27571 480.118505, 145.27571 480.118505, 134.64578 458.858645, 134.64578 458.858645, 145.27571 437.598785, 145.27571 437.598785, 134.64578 416.338925, 134.64578 416.338925, 145.27571 395.079065, 145.27571 395.079065, 134.64578 373.819205, 134.64578 373.819205, 145.27571 352.559345, 145.27571 352.559345, 134.64578 331.299485, 134.64578 331.299485, 145.27571 310.039625, 145.27571 310.039625, 134.64578 288.779765, 134.64578 288.779765, 145.27571 267.519905, 145.27571 267.519905, 134.64578 246.260045, 134.64578 246.260045, 145.27571 225.000185, 145.27571 225.000185, 134.64578 203.74032499999998, 134.64578 203.74032499999998, 145.27571 182.48046499999998, 145.27571 182.48046499999998, 134.64578 161.220605, 134.64578 161.220605, 145.27571 139.960745, 145.27571 139.960745, 134.64578 118.700885, 134.64578 118.700885, 145.27571 97.441025, 145.27571 97.441025, 134.64578 76.181165, 134.64578 76.181165, 145.27571 54.921305, 145.27571 54.921305, 134.64578 46.68310925, 134.64578 46.68310925, 127.204829 51.11224675, 127.204829 51.11224675, 118.346554 46.68310925, 118.346554 46.68310925, 109.488279 35.69884825, 109.488279 35.69884825, 118.346554 31.26971075, 118.346554 31.26971075, 127.204829 35.69884825, 127.204829 35.69884825, 134.64578 27.4606525, 134.64578 27.4606525, 145.27571 10.62993, 145.27571 10.62993, 114.2717475 0, 114.2717475 0, 105.32488975000001 13.110247000000001, 105.32488975000001 13.110247000000001, 92.21464275 0, 92.21464275 0, 83.267785 10.62993, 83.267785 10.62993, 62.007925 0, 62.007925 0, 53.06106725 13.110247000000001, 53.06106725 13.110247000000001, 39.95082025 0, 39.95082025 0, 31.0039625 10.62993, 31.0039625 "/> 
 <circle cx="106.2993" cy="96.37803199999999" r="18.425212000000002" style="stroke:#0000FF;stroke-width:0.00354331;fill:none" /> 
 <circle cx="425.1972" cy="96.37803199999999" r="12.401585" style="stroke:#0000FF;stroke-width:0.00354331;fill:none" /> 
 <circle cx="531.4965" cy="96.37803199999999" r="10.62993" style="stroke:#0000FF;stroke-width:0.00354331;fill:none" /> 
 <circle cx="269.29156" cy="95.66937" r="28.34648" style="stroke:#0000FF;stroke-width:0.00354331;fill:none" /> 
</g>
<!-- Back--> 
<g transform="translate(663.8391285, 22.5000185) " > 
<polygon style="stroke:#0000FF; fill:none; stroke-width:0.00354331" points="10.62993, 0 27.4606525, 0 27.4606525, 10.62993 35.69884825, 10.62993 35.69884825, 18.070881 31.26971075, 18.070881 31.26971075, 26.929156 35.69884825, 26.929156 35.69884825, 35.787431 46.68310925, 35.787431 46.68310925, 26.929156 51.11224675, 26.929156 51.11224675, 18.070881 46.68310925, 18.070881 46.68310925, 10.62993 54.921305, 10.62993 54.921305, 0 76.181165, 0 76.181165, 10.62993 97.441025, 10.62993 97.441025, 0 118.700885, 0 118.700885, 10.62993 139.960745, 10.62993 139.960745, 0 161.220605, 0 161.220605, 10.62993 182.48046499999998, 10.62993 182.48046499999998, 0 203.74032499999998, 0 203.74032499999998, 10.62993 225.000185, 10.62993 225.000185, 0 246.260045, 0 246.260045, 10.62993 267.519905, 10.62993 267.519905, 0 288.779765, 0 288.779765, 10.62993 310.039625, 10.62993 310.039625, 0 331.299485, 0 331.299485, 10.62993 352.559345, 10.62993 352.559345, 0 373.819205, 0 373.819205, 10.62993 395.079065, 10.62993 395.079065, 0 416.338925, 0 416.338925, 10.62993 437.598785, 10.62993 437.598785, 0 458.858645, 0 458.858645, 10.62993 480.118505, 10.62993 480.118505, 0 501.37836500000003, 0 501.37836500000003, 10.62993 522.638225, 10.62993 522.638225, 0 543.898085, 0 543.898085, 10.62993 565.1579449999999, 10.62993 565.1579449999999, 0 586.4178049999999, 0 586.4178049999999, 10.62993 594.65600075, 10.62993 594.65600075, 18.070881 590.22686325, 18.070881 590.22686325, 26.929156 594.65600075, 26.929156 594.65600075, 35.787431 605.64026175, 35.787431 605.64026175, 26.929156 610.0693992500001, 26.929156 610.0693992500001, 18.070881 605.64026175, 18.070881 605.64026175, 10.62993 613.8784575, 10.62993 613.8784575, 0 630.7091800000001, 0 630.7091800000001, 31.0039625 641.33911, 31.0039625 641.33911, 39.95082025 628.228863, 39.95082025 628.228863, 53.06106725 641.33911, 53.06106725 641.33911, 62.007925 630.7091800000001, 62.007925 630.7091800000001, 83.267785 641.33911, 83.267785 641.33911, 92.21464275 628.228863, 92.21464275 628.228863, 105.32488975000001 641.33911, 105.32488975000001 641.33911, 114.2717475 630.7091800000001, 114.2717475 630.7091800000001, 145.27571 613.8784575, 145.27571 613.8784575, 134.64578 605.64026175, 134.64578 605.64026175, 127.204829 610.0693992500001, 127.204829 610.0693992500001, 118.346554 605.64026175, 118.346554 605.64026175, 109.488279 594.65600075, 109.488279 594.65600075, 118.346554 590.22686325, 118.346554 590.22686325, 127.204829 594.65600075, 127.204829 594.65600075, 134.64578 586.4178049999999, 134.64578 586.4178049999999, 145.27571 565.1579449999999, 145.27571 565.1579449999999, 134.64578 543.898085, 134.64578 543.898085, 145.27571 522.638225, 145.27571 522.638225, 134.64578 501.37836500000003, 134.64578 501.37836500000003, 145.27571 480.118505, 145.27571 480.118505, 134.64578 458.858645, 134.64578 458.858645, 145.27571 437.598785, 145.27571 437.598785, 134.64578 416.338925, 134.64578 416.338925, 145.27571 395.079065, 145.27571 395.079065, 134.64578 373.819205, 134.64578 373.819205, 145.27571 352.559345, 145.27571 352.559345, 134.64578 331.299485, 134.64578 331.299485, 145.27571 310.039625, 145.27571 310.039625, 134.64578 288.779765, 134.64578 288.779765, 145.27571 267.519905, 145.27571 267.519905, 134.64578 246.260045, 134.64578 246.260045, 145.27571 225.000185, 145.27571 225.000185, 134.64578 203.74032499999998, 134.64578 203.74032499999998, 145.27571 182.48046499999998, 145.27571 182.48046499999998, 134.64578 161.220605, 134.64578 161.220605, 145.27571 139.960745, 145.27571 139.960745, 134.64578 118.700885, 134.64578 118.700885, 145.27571 97.441025, 145.27571 97.441025, 134.64578 76.181165, 134.64578 76.181165, 145.27571 54.921305, 145.27571 54.921305, 134.64578 46.68310925, 134.64578 46.68310925, 127.204829 51.11224675, 127.204829 51.11224675, 118.346554 46.68310925, 118.346554 46.68310925, 109.488279 35.69884825, 109.488279 35.69884825, 118.346554 31.26971075, 118.346554 31.26971075, 127.204829 35.69884825, 127.204829 35.69884825, 134.64578 27.4606525, 134.64578 27.4606525, 145.27571 10.62993, 145.27571 10.62993, 114.2717475 0, 114.2717475 0, 105.32488975000001 13.110247000000001, 105.32488975000001 13.110247000000001, 92.21464275 0, 92.21464275 0, 83.267785 10.62993, 83.267785 10.62993, 62.007925 0, 62.007925 0, 53.06106725 13.110247000000001, 53.06106725 13.110247000000001, 39.95082025 0, 39.95082025 0, 31.0039625 10.62993, 31.0039625 "/> 
 <circle cx="276.37818" cy="96.37803199999999" r="18.425212000000002" style="stroke:#0000FF;stroke-width:0.00354331;fill:none" /> 
 <circle cx="343.70107" cy="96.37803199999999" r="18.425212000000002" style="stroke:#0000FF;stroke-width:0.00354331;fill:none" /> 
</g>
<!-- Left--> 
<g transform="translate(1305.1782385000001, 22.5000185) " > 
<polygon style="stroke:#0000FF; fill:none; stroke-width:0.00354331" points="0, 10.62993 27.4606525, 10.62993 27.4606525, 0 34.63585525, 0 34.63585525, 13.110247000000001 47.74610225, 13.110247000000001 47.74610225, 0 54.921305, 0 54.921305, 10.62993 76.181165, 10.62993 76.181165, 0 97.441025, 0 97.441025, 10.62993 118.700885, 10.62993 118.700885, 0 139.960745, 0 139.960745, 10.62993 161.220605, 10.62993 161.220605, 0 182.48046499999998, 0 182.48046499999998, 10.62993 203.74032499999998, 10.62993 203.74032499999998, 0 225.000185, 0 225.000185, 10.62993 246.260045, 10.62993 246.260045, 0 267.519905, 0 267.519905, 10.62993 288.779765, 10.62993 288.779765, 0 310.039625, 0 310.039625, 10.62993 331.299485, 10.62993 331.299485, 0 352.559345, 0 352.559345, 10.62993 373.819205, 10.62993 373.819205, 0 395.079065, 0 395.079065, 10.62993 416.338925, 10.62993 416.338925, 0 437.598785, 0 437.598785, 10.62993 458.858645, 10.62993 458.858645, 0 480.118505, 0 480.118505, 10.62993 501.37836500000003, 10.62993 501.37836500000003, 0 522.638225, 0 522.638225, 10.62993 543.898085, 10.62993 543.898085, 0 565.1579449999999, 0 565.1579449999999, 10.62993 586.4178049999999, 10.62993 586.4178049999999, 0 593.59300775, 0 593.59300775, 13.110247000000001 606.70325475, 13.110247000000001 606.70325475, 0 613.8784575, 0 613.8784575, 10.62993 641.33911, 10.62993 641.33911, 31.0039625 630.7091800000001, 31.0039625 630.7091800000001, 41.01381325 623.268229, 41.01381325 623.268229, 36.58467575 614.4099540000001, 36.58467575 614.4099540000001, 41.01381325 605.551679, 41.01381325 605.551679, 51.99807425 614.4099540000001, 51.99807425 614.4099540000001, 56.42721175 623.268229, 56.42721175 623.268229, 51.99807425 630.7091800000001, 51.99807425 630.7091800000001, 62.007925 641.33911, 62.007925 641.33911, 83.267785 630.7091800000001, 83.267785 630.7091800000001, 93.27763575 623.268229, 93.27763575 623.268229, 88.84849825 614.4099540000001, 88.84849825 614.4099540000001, 93.27763575 605.551679, 93.27763575 605.551679, 104.26189675 614.4099540000001, 104.26189675 614.4099540000001, 108.69103425 623.268229, 108.69103425 623.268229, 104.26189675 630.7091800000001, 104.26189675 630.7091800000001, 114.2717475 641.33911, 114.2717475 641.33911, 134.64578 613.8784575, 134.64578 613.8784575, 145.27571 606.70325475, 145.27571 606.70325475, 132.165463 593.59300775, 132.165463 593.59300775, 145.27571 586.4178049999999, 145.27571 586.4178049999999, 134.64578 565.1579449999999, 134.64578 565.1579449999999, 145.27571 543.898085, 145.27571 543.898085, 134.64578 522.638225, 134.64578 522.638225, 145.27571 501.37836500000003, 145.27571 501.37836500000003, 134.64578 480.118505, 134.64578 480.118505, 145.27571 458.858645, 145.27571 458.858645, 134.64578 437.598785, 134.64578 437.598785, 145.27571 416.338925, 145.27571 416.338925, 134.64578 395.079065, 134.64578 395.079065, 145.27571 373.819205, 145.27571 373.819205, 134.64578 352.559345, 134.64578 352.559345, 145.27571 331.299485, 145.27571 331.299485, 134.64578 310.039625, 134.64578 310.039625, 145.27571 288.779765, 145.27571 288.779765, 134.64578 267.519905, 134.64578 267.519905, 145.27571 246.260045, 145.27571 246.260045, 134.64578 225.000185, 134.64578 225.000185, 145.27571 203.74032499999998, 145.27571 203.74032499999998, 134.64578 182.48046499999998, 134.64578 182.48046499999998, 145.27571 161.220605, 145.27571 161.220605, 134.64578 139.960745, 134.64578 139.960745, 145.27571 118.700885, 145.27571 118.700885, 134.64578 97.441025, 134.64578 97.441025, 145.27571 76.181165, 145.27571 76.181165, 134.64578 54.921305, 134.64578 54.921305, 145.27571 47.74610225, 145.27571 47.74610225, 132.165463 34.63585525, 132.165463 34.63585525, 145.27571 27.4606525, 145.27571 27.4606525, 134.64578 0, 134.64578 0, 114.2717475 10.62993, 114.2717475 10.62993, 104.26189675 18.070881, 104.26189675 18.070881, 108.69103425 26.929156, 108.69103425 26.929156, 104.26189675 35.787431, 104.26189675 35.787431, 93.27763575 26.929156, 93.27763575 26.929156, 88.84849825 18.070881, 88.84849825 18.070881, 93.27763575 10.62993, 93.27763575 10.62993, 83.267785 0, 83.267785 0, 62.007925 10.62993, 62.007925 10.62993, 51.99807425 18.070881, 51.99807425 18.070881, 56.42721175 26.929156, 56.42721175 26.929156, 51.99807425 35.787431, 51.99807425 35.787431, 41.01381325 26.929156, 41.01381325 26.929156, 36.58467575 18.070881, 36.58467575 18.070881, 41.01381325 10.62993, 41.01381325 10.62993, 31.0039625 0, 31.0039625 "/> 
</g>
<!-- Right--> 
<g transform="translate(1305.1782385000001, 167.7757285) " > 
<polygon style="stroke:#0000FF; fill:none; stroke-width:0.00354331" points="0, 10.62993 27.4606525, 10.62993 27.4606525, 0 34.63585525, 0 34.63585525, 13.110247000000001 47.74610225, 13.110247000000001 47.74610225, 0 54.921305, 0 54.921305, 10.62993 76.181165, 10.62993 76.181165, 0 97.441025, 0 97.441025, 10.62993 118.700885, 10.62993 118.700885, 0 139.960745, 0 139.960745, 10.62993 161.220605, 10.62993 161.220605, 0 182.48046499999998, 0 182.48046499999998, 10.62993 203.74032499999998, 10.62993 203.74032499999998, 0 225.000185, 0 225.000185, 10.62993 246.260045, 10.62993 246.260045, 0 267.519905, 0 267.519905, 10.62993 288.779765, 10.62993 288.779765, 0 310.039625, 0 310.039625, 10.62993 331.299485, 10.62993 331.299485, 0 352.559345, 0 352.559345, 10.62993 373.819205, 10.62993 373.819205, 0 395.079065, 0 395.079065, 10.62993 416.338925, 10.62993 416.338925, 0 437.598785, 0 437.598785, 10.62993 458.858645, 10.62993 458.858645, 0 480.118505, 0 480.118505, 10.62993 501.37836500000003, 10.62993 501.37836500000003, 0 522.638225, 0 522.638225, 10.62993 543.898085, 10.62993 543.898085, 0 565.1579449999999, 0 565.1579449999999, 10.62993 586.4178049999999, 10.62993 586.4178049999999, 0 593.59300775, 0 593.59300775, 13.110247000000001 606.70325475, 13.110247000000001 606.70325475, 0 613.8784575, 0 613.8784575, 10.62993 641.33911, 10.62993 641.33911, 31.0039625 630.7091800000001, 31.0039625 630.7091800000001, 41.01381325 623.268229, 41.01381325 623.268229, 36.58467575 614.4099540000001, 36.58467575 614.4099540000001, 41.01381325 605.551679, 41.01381325 605.551679, 51.99807425 614.4099540000001, 51.99807425 614.4099540000001, 56.42721175 623.268229, 56.42721175 623.268229, 51.99807425 630.7091800000001, 51.99807425 630.7091800000001, 62.007925 641.33911, 62.007925 641.33911, 83.267785 630.7091800000001, 83.267785 630.7091800000001, 93.27763575 623.268229, 93.27763575 623.268229, 88.84849825 614.4099540000001, 88.84849825 614.4099540000001, 93.27763575 605.551679, 93.27763575 605.551679, 104.26189675 614.4099540000001, 104.26189675 614.4099540000001, 108.69103425 623.268229, 108.69103425 623.268229, 104.26189675 630.7091800000001, 104.26189675 630.7091800000001, 114.2717475 641.33911, 114.2717475 641.33911, 134.64578 613.8784575, 134.64578 613.8784575, 145.27571 606.70325475, 145.27571 606.70325475, 132.165463 593.59300775, 132.165463 593.59300775, 145.27571 586.4178049999999, 145.27571 586.4178049999999, 134.64578 565.1579449999999, 134.64578 565.1579449999999, 145.27571 543.898085, 145.27571 543.898085, 134.64578 522.638225, 134.64578 522.638225, 145.27571 501.37836500000003, 145.27571 501.37836500000003, 134.64578 480.118505, 134.64578 480.118505, 145.27571 458.858645, 145.27571 458.858645, 134.64578 437.598785, 134.64578 437.598785, 145.27571 416.338925, 145.27571 416.338925, 134.64578 395.079065, 134.64578 395.079065, 145.27571 373.819205, 145.27571 373.819205, 134.64578 352.559345, 134.64578 352.559345, 145.27571 331.299485, 145.27571 331.299485, 134.64578 310.039625, 134.64578 310.039625, 145.27571 288.779765, 145.27571 288.779765, 134.64578 267.519905, 134.64578 267.519905, 145.27571 246.260045, 145.27571 246.260045, 134.64578 225.000185, 134.64578 225.000185, 145.27571 203.74032499999998, 145.27571 203.74032499999998, 134.64578 182.48046499999998, 134.64578 182.48046499999998, 145.27571 161.220605, 145.27571 161.220605, 134.64578 139.960745, 134.64578 139.960745, 145.27571 118.700885, 145.27571 118.700885, 134.64578 97.441025, 134.64578 97.441025, 145.27571 76.181165, 145.27571 76.181165, 134.64578 54.921305, 134.64578 54.921305, 145.27571 47.74610225, 145.27571 47.74610225, 132.165463 34.63585525, 132.165463 34.63585525, 145.27571 27.4606525, 145.27571 27.4606525, 134.64578 0, 134.64578 0, 114.2717475 10.62993, 114.2717475 10.62993, 104.26189675 18.070881, 104.26189675 18.070881, 108.69103425 26.929156, 108.69103425 26.929156, 104.26189675 35.787431, 104.26189675 35.787431, 93.27763575 26.929156, 93.27763575 26.929156, 88.84849825 18.070881, 88.84849825 18.070881, 93.27763575 10.62993, 93.27763575 10.62993, 83.267785 0, 83.267785 0, 62.007925 10.62993, 62.007925 10.62993, 51.99807425 18.070881, 51.99807425 18.070881, 56.42721175 26.929156, 56.42721175 26.929156, 51.99807425 35.787431, 51.99807425 35.787431, 41.01381325 26.929156, 41.01381325 26.929156, 36.58467575 18.070881, 36.58467575 18.070881, 41.01381325 10.62993, 41.01381325 10.62993, 31.0039625 0, 31.0039625 "/> 
</g>
<!-- Top--> 
<g transform="translate(22.5000185, 167.7757285) " > 
<polygon style="stroke:#0000FF; fill:none; stroke-width:0.00354331" points="0, 10.62993 27.4606525, 10.62993 27.4606525, 0 34.63585525, 0 34.63585525, 13.110247000000001 47.74610225, 13.110247000000001 47.74610225, 0 54.921305, 0 54.921305, 10.62993 76.181165, 10.62993 76.181165, 0 97.441025, 0 97.441025, 10.62993 118.700885, 10.62993 118.700885, 0 139.960745, 0 139.960745, 10.62993 161.220605, 10.62993 161.220605, 0 182.48046499999998, 0 182.48046499999998, 10.62993 203.74032499999998, 10.62993 203.74032499999998, 0 225.000185, 0 225.000185, 10.62993 246.260045, 10.62993 246.260045, 0 267.519905, 0 267.519905, 10.62993 288.779765, 10.62993 288.779765, 0 310.039625, 0 310.039625, 10.62993 331.299485, 10.62993 331.299485, 0 352.559345, 0 352.559345, 10.62993 373.819205, 10.62993 373.819205, 0 395.079065, 0 395.079065, 10.62993 416.338925, 10.62993 416.338925, 0 437.598785, 0 437.598785, 10.62993 458.858645, 10.62993 458.858645, 0 480.118505, 0 480.118505, 10.62993 501.37836500000003, 10.62993 501.37836500000003, 0 522.638225, 0 522.638225, 10.62993 543.898085, 10.62993 543.898085, 0 565.1579449999999, 0 565.1579449999999, 10.62993 586.4178049999999, 10.62993 586.4178049999999, 0 593.59300775, 0 593.59300775, 13.110247000000001 606.70325475, 13.110247000000001 606.70325475, 0 613.8784575, 0 613.8784575, 10.62993 641.33911, 10.62993 641.33911, 27.4606525 630.7091800000001, 27.4606525 630.7091800000001, 35.69884825 623.268229, 35.69884825 623.268229, 31.26971075 614.4099540000001, 31.26971075 614.4099540000001, 35.69884825 605.551679, 35.69884825 605.551679, 46.68310925 614.4099540000001, 46.68310925 614.4099540000001, 51.11224675 623.268229, 51.11224675 623.268229, 46.68310925 630.7091800000001, 46.68310925 630.7091800000001, 54.921305 641.33911, 54.921305 641.33911, 76.181165 630.7091800000001, 76.181165 630.7091800000001, 97.441025 641.33911, 97.441025 641.33911, 118.700885 630.7091800000001, 118.700885 630.7091800000001, 139.960745 641.33911, 139.960745 641.33911, 161.220605 630.7091800000001, 161.220605 630.7091800000001, 182.48046499999998 641.33911, 182.48046499999998 641.33911, 203.74032499999998 630.7091800000001, 203.74032499999998 630.7091800000001, 225.000185 641.33911, 225.000185 641.33911, 246.260045 630.7091800000001, 246.260045 630.7091800000001, 267.519905 641.33911, 267.519905 641.33911, 288.779765 630.7091800000001, 288.779765 630.7091800000001, 310.039625 641.33911, 310.039625 641.33911, 331.299485 630.7091800000001, 331.299485 630.7091800000001, 352.559345 641.33911, 352.559345 641.33911, 373.819205 630.7091800000001, 373.819205 630.7091800000001, 395.079065 641.33911, 395.079065 641.33911, 416.338925 630.7091800000001, 416.338925 630.7091800000001, 437.598785 641.33911, 437.598785 641.33911, 458.858645 630.7091800000001, 458.858645 630.7091800000001, 480.118505 641.33911, 480.118505 641.33911, 501.37836500000003 630.7091800000001, 501.37836500000003 630.7091800000001, 522.638225 641.33911, 522.638225 641.33911, 543.898085 630.7091800000001, 543.898085 630.7091800000001, 565.1579449999999 641.33911, 565.1579449999999 641.33911, 586.4178049999999 630.7091800000001, 586.4178049999999 630.7091800000001, 594.65600075 623.268229, 594.65600075 623.268229, 590.22686325 614.4099540000001, 590.22686325 614.4099540000001, 594.65600075 605.551679, 594.65600075 605.551679, 605.64026175 614.4099540000001, 605.64026175 614.4099540000001, 610.0693992500001 623.268229, 610.0693992500001 623.268229, 605.64026175 630.7091800000001, 605.64026175 630.7091800000001, 613.8784575 641.33911, 613.8784575 641.33911, 630.7091800000001 613.8784575, 630.7091800000001 613.8784575, 641.33911 606.70325475, 641.33911 606.70325475, 628.228863 593.59300775, 628.228863 593.59300775, 641.33911 586.4178049999999, 641.33911 586.4178049999999, 630.7091800000001 565.1579449999999, 630.7091800000001 565.1579449999999, 641.33911 543.898085, 641.33911 543.898085, 630.7091800000001 522.638225, 630.7091800000001 522.638225, 641.33911 501.37836500000003, 641.33911 501.37836500000003, 630.7091800000001 480.118505, 630.7091800000001 480.118505, 641.33911 458.858645, 641.33911 458.858645, 630.7091800000001 437.598785, 630.7091800000001 437.598785, 641.33911 416.338925, 641.33911 416.338925, 630.7091800000001 395.079065, 630.7091800000001 395.079065, 641.33911 373.819205, 641.33911 373.819205, 630.7091800000001 352.559345, 630.7091800000001 352.559345, 641.33911 331.299485, 641.33911 331.299485, 630.7091800000001 310.039625, 630.7091800000001 310.039625, 641.33911 288.779765, 641.33911 288.779765, 630.7091800000001 267.519905, 630.7091800000001 267.519905, 641.33911 246.260045, 641.33911 246.260045, 630.7091800000001 225.000185, 630.7091800000001 225.000185, 641.33911 203.74032499999998, 641.33911 203.74032499999998, 630.7091800000001 182.48046499999998, 630.7091800000001 182.48046499999998, 641.33911 161.220605, 641.33911 161.220605, 630.7091800000001 139.960745, 630.7091800000001 139.960745, 641.33911 118.700885, 641.33911 118.700885, 630.7091800000001 97.441025, 630.7091800000001 97.441025, 641.33911 76.181165, 641.33911 76.181165, 630.7091800000001 54.921305, 630.7091800000001 54.921305, 641.33911 47.74610225, 641.33911 47.74610225, 628.228863 34.63585525, 628.228863 34.63585525, 641.33911 27.4606525, 641.33911 27.4606525, 630.7091800000001 0, 630.7091800000001 0, 613.8784575 10.62993, 613.8784575 10.62993, 605.64026175 18.070881, 605.64026175 18.070881, 610.0693992500001 26.929156, 610.0693992500001 26.929156, 605.64026175 35.787431, 605.64026175 35.787431, 594.65600075 26.929156, 594.65600075 26.929156, 590.22686325 18.070881, 590.22686325 18.070881, 594.65600075 10.62993, 594.65600075 10.62993, 586.4178049999999 0, 586.4178049999999 0, 565.1579449999999 10.62993, 565.1579449999999 10.62993, 543.898085 0, 543.898085 0, 522.638225 10.62993, 522.638225 10.62993, 501.37836500000003 0, 501.37836500000003 0, 480.118505 10.62993, 480.118505 10.62993, 458.858645 0, 458.858645 0, 437.598785 10.62993, 437.598785 10.62993, 416.338925 0, 416.338925 0, 395.079065 10.62993, 395.079065 10.62993, 373.819205 0, 373.819205 0, 352.559345 10.62993, 352.559345 10.62993, 331.299485 0, 331.299485 0, 310.039625 10.62993, 310.039625 10.62993, 288.779765 0, 288.779765 0, 267.519905 10.62993, 267.519905 10.62993, 246.260045 0, 246.260045 0, 225.000185 10.62993, 225.000185 10.62993, 203.74032499999998 0, 203.74032499999998 0, 182.48046499999998 10.62993, 182.48046499999998 10.62993, 161.220605 0, 161.220605 0, 139.960745 10.62993, 139.960745 10.62993, 118.700885 0, 118.700885 0, 97.441025 10.62993, 97.441025 10.62993, 76.181165 0, 76.181165 0, 54.921305 10.62993, 54.921305 10.62993, 46.68310925 18.070881, 46.68310925 18.070881, 51.11224675 26.929156, 51.11224675 26.929156, 46.68310925 35.787431, 46.68310925 35.787431, 35.69884825 26.929156, 35.69884825 26.929156, 31.26971075 18.070881, 31.26971075 18.070881, 35.69884825 10.62993, 35.69884825 10.62993, 27.4606525 0, 27.4606525 "/> 
</g>
<!-- Bottom--> 
<g transform="translate(663.8391285, 167.7757285) " > 
<polygon style="stroke:#0000FF; fill:none; stroke-width:0.00354331" points="0, 10.62993 27.4606525, 10.62993 27.4606525, 0 34.63585525, 0 34.63585525, 13.110247000000001 47.74610225, 13.110247000000001 47.74610225, 0 54.921305, 0 54.921305, 10.62993 76.181165, 10.62993 76.181165, 0 97.441025, 0 97.441025, 10.62993 118.700885, 10.62993 118.700885, 0 139.960745, 0 139.960745, 10.62993 161.220605, 10.62993 161.220605, 0 182.48046499999998, 0 182.48046499999998, 10.62993 203.74032499999998, 10.62993 203.74032499999998, 0 225.000185, 0 225.000185, 10.62993 246.260045, 10.62993 246.260045, 0 267.519905, 0 267.519905, 10.62993 288.779765, 10.62993 288.779765, 0 310.039625, 0 310.039625, 10.62993 331.299485, 10.62993 331.299485, 0 352.559345, 0 352.559345, 10.62993 373.819205, 10.62993 373.819205, 0 395.079065, 0 395.079065, 10.62993 416.338925, 10.62993 416.338925, 0 437.598785, 0 437.598785, 10.62993 458.858645, 10.62993 458.858645, 0 480.118505, 0 480.118505, 10.62993 501.37836500000003, 10.62993 501.37836500000003, 0 522.638225, 0 522.638225, 10.62993 543.898085, 10.62993 543.898085, 0 565.1579449999999, 0 565.1579449999999, 10.62993 586.4178049999999, 10.62993 586.4178049999999, 0 593.59300775, 0 593.59300775, 13.110247000000001 606.70325475, 13.110247000000001 606.70325475, 0 613.8784575, 0 613.8784575, 10.62993 641.33911, 10.62993 641.33911, 27.4606525 630.7091800000001, 27.4606525 630.7091800000001, 35.69884825 623.268229, 35.69884825 623.268229, 31.26971075 614.4099540000001, 31.26971075 614.4099540000001, 35.69884825 605.551679, 35.69884825 605.551679, 46.68310925 614.4099540000001, 46.68310925 614.4099540000001, 51.11224675 623.268229, 51.11224675 623.268229, 46.68310925 630.7091800000001, 46.68310925 630.7091800000001, 54.921305 641.33911, 54.921305 641.33911, 76.181165 630.7091800000001, 76.181165 630.7091800000001, 97.441025 641.33911, 97.441025 641.33911, 118.700885 630.7091800000001, 118.700885 630.7091800000001, 139.960745 641.33911, 139.960745 641.33911, 161.220605 630.7091800000001, 161.220605 630.7091800000001, 182.48046499999998 641.33911, 182.48046499999998 641.33911, 203.74032499999998 630.7091800000001, 203.74032499999998 630.7091800000001, 225.000185 641.33911, 225.000185 641.33911, 246.260045 630.7091800000001, 246.260045 630.7091800000001, 267.519905 641.33911, 267.519905 641.33911, 288.779765 630.7091800000001, 288.779765 630.7091800000001, 310.039625 641.33911, 310.039625 641.33911, 331.299485 630.7091800000001, 331.299485 630.7091800000001, 352.559345 641.33911, 352.559345 641.33911, 373.819205 630.7091800000001, 373.819205 630.7091800000001, 395.079065 641.33911, 395.079065 641.33911, 416.338925 630.7091800000001, 416.338925 630.7091800000001, 437.598785 641.33911, 437.598785 641.33911, 458.858645 630.7091800000001, 458.858645 630.7091800000001, 480.118505 641.33911, 480.118505 641.33911, 501.37836500000003 630.7091800000001, 501.37836500000003 630.7091800000001, 522.638225 641.33911, 522.638225 641.33911, 543.898085 630.7091800000001, 543.898085 630.7091800000001, 565.1579449999999 641.33911, 565.1579449999999 641.33911, 586.4178049999999 630.7091800000001, 586.4178049999999 630.7091800000001, 594.65600075 623.268229, 594.65600075 623.268229, 590.22686325 614.4099540000001, 590.22686325 614.4099540000001, 594.65600075 605.551679, 594.65600075 605.551679, 605.64026175 614.4099540000001, 605.64026175 614.4099540000001, 610.0693992500001 623.268229, 610.0693992500001 623.268229, 605.64026175 630.7091800000001, 605.64026175 630.7091800000001, 613.8784575 641.33911, 613.8784575 641.33911, 630.7091800000001 613.8784575, 630.7091800000001 613.8784575, 641.33911 606.70325475, 641.33911 606.70325475, 628.228863 593.59300775, 628.228863 593.59300775, 641.33911 586.4178049999999, 641.33911 586.4178049999999, 630.7091800000001 565.1579449999999, 630.7091800000001 565.1579449999999, 641.33911 543.898085, 641.33911 543.898085, 630.7091800000001 522.638225, 630.7091800000001 522.638225, 641.33911 501.37836500000003, 641.33911 501.37836500000003, 630.7091800000001 480.118505, 630.7091800000001 480.118505, 641.33911 458.858645, 641.33911 458.858645, 630.7091800000001 437.598785, 630.7091800000001 437.598785, 641.33911 416.338925, 641.33911 416.338925, 630.7091800000001 395.079065, 630.7091800000001 395.079065, 641.33911 373.819205, 641.33911 373.819205, 630.7091800000001 352.559345, 630.7091800000001 352.559345, 641.33911 331.299485, 641.33911 331.299485, 630.7091800000001 310.039625, 630.7091800000001 310.039625, 641.33911 288.779765, 641.33911 288.779765, 630.7091800000001 267.519905, 630.7091800000001 267.519905, 641.33911 246.260045, 641.33911 246.260045, 630.7091800000001 225.000185, 630.7091800000001 225.000185, 641.33911 203.74032499999998, 641.33911 203.74032499999998, 630.7091800000001 182.48046499999998, 630.7091800000001 182.48046499999998, 641.33911 161.220605, 641.33911 161.220605, 630.7091800000001 139.960745, 630.7091800000001 139.960745, 641.33911 118.700885, 641.33911 118.700885, 630.7091800000001 97.441025, 630.7091800000001 97.441025, 641.33911 76.181165, 641.33911 76.181165, 630.7091800000001 54.921305, 630.7091800000001 54.921305, 641.33911 47.74610225, 641.33911 47.74610225, 628.228863 34.63585525, 628.228863 34.63585525, 641.33911 27.4606525, 641.33911 27.4606525, 630.7091800000001 0, 630.7091800000001 0, 613.8784575 10.62993, 613.8784575 10.62993, 605.64026175 18.070881, 605.64026175 18.070881, 610.0693992500001 26.929156, 610.0693992500001 26.929156, 605.64026175 35.787431, 605.64026175 35.787431, 594.65600075 26.929156, 594.65600075 26.929156, 590.22686325 18.070881, 590.22686325 18.070881, 594.65600075 10.62993, 594.65600075 10.62993, 586.4178049999999 0, 586.4178049999999 0, 565.1579449999999 10.62993, 565.1579449999999 10.62993, 543.898085 0, 543.898085 0, 522.638225 10.62993, 522.638225 10.62993, 501.37836500000003 0, 501.37836500000003 0, 480.118505 10.62993, 480.118505 10.62993, 458.858645 0, 458.858645 0, 437.598785 10.62993, 437.598785 10.62993, 416.338925 0, 416.338925 0, 395.079065 10.62993, 395.079065 10.62993, 373.819205 0, 373.819205 0, 352.559345 10.62993, 352.559345 10.62993, 331.299485 0, 331.299485 0, 310.039625 10.62993, 310.039625 10.62993, 288.779765 0, 288.779765 0, 267.519905 10.62993, 267.519905 10.62993, 246.260045 0, 246.260045 0, 225.000185 10.62993, 225.000185 10.62993, 203.74032499999998 0, 203.74032499999998 0, 182.48046499999998 10.62993, 182.48046499999998 10.62993, 161.220605 0, 161.220605 0, 139.960745 10.62993, 139.960745 10.62993, 118.700885 0, 118.700885 0, 97.441025 10.62993, 97.441025 10.62993, 76.181165 0, 76.181165 0, 54.921305 10.62993, 54.921305 10.62993, 46.68310925 18.070881, 46.68310925 18.070881, 51.11224675 26.929156, 51.11224675 26.929156, 46.68310925 35.787431, 46.68310925 35.787431, 35.69884825 26.929156, 35.69884825 26.929156, 31.26971075 18.070881, 31.26971075 18.070881, 35.69884825 10.62993, 35.69884825 10.62993, 27.4606525 0, 27.4606525 "/> 
</g></svg>